<svg width="22" height="20" viewBox="0 0 22 20" fill="none" xmlns="http://www.w3.org/2000/svg">
<path d="M21.1114 2.49996C20.2598 3.06285 19.3169 3.49338 18.319 3.77496C17.7834 3.19788 17.0716 2.78887 16.2798 2.60323C15.4881 2.41759 14.6546 2.46429 13.8921 2.737C13.1296 3.00972 12.4749 3.49529 12.0165 4.12805C11.5581 4.76082 11.3182 5.51024 11.3291 6.27496V7.10829C9.7663 7.14626 8.21772 6.82147 6.82129 6.16283C5.42486 5.50419 4.22393 4.53215 3.32546 3.33329C3.32546 3.33329 -0.231714 10.8333 7.77194 14.1666C5.94046 15.3316 3.75869 15.9157 1.54688 15.8333C9.55052 20 19.3328 15.8333 19.3328 6.24996C19.3319 6.01783 19.3081 5.78629 19.2616 5.55829C20.1692 4.71953 20.8097 3.66055 21.1114 2.49996Z" fill="white"/>
</svg>
